<svg id="Capa_1" enable-background="new 0 0 512 512" height="512" viewBox="0 0 512 512" width="512" xmlns="http://www.w3.org/2000/svg"><g><g clip-rule="evenodd" fill-rule="evenodd"><path d="m140.112 143.057v108.912c-.142 11.58 9.566 21.09 21.061 21.09 11.639 0 21.061-9.453 21.061-21.062v-103.916l33.693 4.001v99.887c-.143 11.58 9.565 21.09 21.062 21.09 11.609 0 21.061-9.453 21.061-21.062v-94.919l33.692 4.004v134.345c0 41.357-22.425 76.952-54.612 92.933-6.33 3.15-7.465 5.592-7.068 11.467l5.053 89.241c.342 6.216-2.101 8.147-7.692 8.147h-56.685c-4.854 0-8.032-2.611-7.692-8.147l5.053-89.241c.397-6.358-.425-8.146-6.953-11.383-32.189-16.094-54.726-51.603-54.726-93.017v-156.374z" fill="#afd2fc"/><path d="m401.28 39.195c13.426-13.34 32.415-26.823 52.426-24.04 4.116.567 3.861 3.548 4.031 7.096.823 19.101-11.496 36.189-24.326 49.078-21.771 21.799-46.636 32.244-55.491 23.389-8.886-8.885 1.56-33.751 23.36-55.523z" fill="#b3e59f"/><path d="m432.276 17.88c6.841-2.555 14.078-3.747 21.43-2.725 4.116.567 3.861 3.548 4.031 7.096.823 19.101-11.496 36.189-24.326 49.078-21.771 21.799-46.636 32.244-55.491 23.389-.256-.256-.512-.54-.71-.823 9.707-4.344 20.806-12.179 31.167-22.565 12.829-12.889 25.147-29.977 24.325-49.078-.086-1.647-.058-3.152-.426-4.372z" fill="#95d6a4"/><path d="m401.28 150.209c13.512 13.455 31.649 26.256 51.717 24.155 4.797-.511 4.627-3.435 4.74-7.578.625-19.018-11.524-35.85-24.326-48.709-21.771-21.799-46.636-32.244-55.491-23.359-8.886 8.855 1.56 33.72 23.36 55.491z" fill="#b3e59f"/><path d="m432.247 171.527c6.585 2.412 13.539 3.605 20.749 2.838 4.797-.511 4.627-3.435 4.74-7.578.625-19.018-11.524-35.85-24.326-48.709-21.771-21.799-46.636-32.244-55.491-23.359-.256.227-.512.511-.71.794 9.707 4.371 20.806 12.177 31.167 22.565 12.801 12.859 24.949 29.691 24.325 48.709-.057 1.843-.057 3.462-.454 4.74z" fill="#95d6a4"/><path d="m445.304 67.241c23.021.057 50.383 4.769 65.314 24.213 2.98 3.915.625 5.902-2.186 9.082-15.44 17.371-41.045 21.572-63.128 21.629-37.213 0-67.385-12.29-67.385-27.447 0-15.187 30.172-27.477 67.385-27.477z" fill="#9ce59e"/><path d="m461.512 68.121c18.62 2.071 37.553 8.316 49.105 23.333 2.98 3.915.625 5.902-2.186 9.082-11.751 13.227-29.407 18.818-46.92 20.778 8.289-4.258 15.867-10.419 21.884-19.132 2.811-4.087 5.167-6.644 2.186-11.639-6.243-10.501-14.702-17.653-24.069-22.422z" fill="#b3e59f"/></g><path d="m37.158 53.531 302.725-35.992c24.468-2.896 46.211 16.462 46.239 41.073v72.154c0 25.63-22.992 44.932-48.085 40.844l-301.53-35.849c-22.681-2.697-38.888-23.248-36.22-45.928 2.328-19.611 18.025-34.4 36.871-36.302z" fill="#e4936b"/><path d="m330.374 18.674 9.509-1.135c24.468-2.896 46.211 16.462 46.239 41.073v72.154c0 25.63-22.992 44.932-48.085 40.844l-7.522-.907c17.344-4.711 30.57-20.494 30.57-39.937v-72.154c.001-19.216-13.282-35.227-30.711-39.938z" fill="#e27d47"/><path d="m45.363 52.566 15.016-1.788v28.697c0 4.145-3.35 7.521-7.494 7.521s-7.521-3.377-7.521-7.521v-26.909zm108.258-12.887 15.016-1.76v47.687c0 4.145-3.377 7.522-7.521 7.522-4.145 0-7.494-3.378-7.494-7.522v-45.927zm132.445-15.725 15.043-1.789v40.932c0 4.145-3.377 7.493-7.521 7.493s-7.522-3.349-7.522-7.493zm48.112 147.203-15.016-1.788v-43.939c0-4.172 3.35-7.522 7.494-7.522 4.142 0 7.521 3.351 7.521 7.522v45.727zm-127.59-15.186-15.016-1.788v-26.909c0-4.145 3.35-7.521 7.493-7.521 4.145 0 7.523 3.377 7.523 7.521zm-75.815-9.027-15.016-1.76v-39.17c0-4.145 3.35-7.495 7.522-7.495 4.144 0 7.493 3.351 7.493 7.495v40.93zm113.112-54.839c0-4.144 3.351-7.492 7.495-7.492s7.521 3.349 7.521 7.492v27.817c0 4.145-3.378 7.523-7.521 7.523-4.144 0-7.495-3.379-7.495-7.523z" fill="#e27d47"/><path clip-rule="evenodd" d="m266.707 163.125 25.035 2.98v129.32c0 41.357-22.425 76.952-54.612 92.933-6.33 3.15-7.465 5.592-7.068 11.467l5.053 89.241c.342 6.216-2.101 8.147-7.692 8.147h-25.035c5.593 0 8.062-1.931 7.693-8.147l-5.053-89.241c-.398-5.875.738-8.316 7.067-11.467 32.189-15.98 54.613-51.575 54.613-92.933-.001-44.108-.001-88.189-.001-132.3z" fill="#8fb2f7" fill-rule="evenodd"/></g></svg>